<svg xmlns="http://www.w3.org/2000/svg" width="864" height="512" style=""><rect id="backgroundrect" width="100%" height="100%" x="0" y="0" fill="none" stroke="none"/><g class="currentLayer" style=""><title>Layer 1</title><path d="M221,176 q0,100 72,182 q16,24 52,54 q63,54 140,53 q133,0 154,-107 q4,-25 4,-39 q0,-98 -76,-186 t-178,-88 q-135,0 -162,82 q-6,25 -6,49 zM0,255 q0,-109 122,-182 t296,-73 q176,0 311,74 t135,178 q0,260 -442,260 q-215,0 -319,-74 Q0,364 0,255 z" id="svg_1" class=""/></g></svg>