<svg xmlns="http://www.w3.org/2000/svg" width="1432" height="2072"><rect id="backgroundrect" width="100%" height="100%" x="0" y="0" fill="none" stroke="none"/><g class="currentLayer" style=""><title>Layer 1</title><path d="M471,49 v897 q0,16 18,12 q133,-37 183,-299 q10,-51 38,-51 t48,70 t68,124 q48,52 146,52 t134,-94 q37,-94 37,-304 t-47,-301 q-47,-90 -170,-90 q-66,1 -120,17 t-54,39 q0,10 55,30 q82,29 82,133 q0,66 -39,104 q-38,38 -104,38 t-110,-45 t-44,-123 q0,-106 92,-182 t264,-76 q232,0 358,135 t126,331 t-114,329 q-114,132 -314,132 q-66,0 -115,-15 t-71,-1 t-48,55 t-25,70 q0,29 26,70 t47,55 q20,14 70,-1 t116,-15 q200,0 314,132 q114,133 114,329 t-125,331 t-359,135 q-172,0 -264,-76 t-92,-182 q0,-78 44,-123 t110,-45 t104,38 q39,38 39,104 q0,104 -82,133 q-55,20 -55,30 q0,23 54,39 t120,17 q123,0 170,-90 t47,-300 q0,-211 -37,-305 t-134,-94 q-98,0 -146,52 t-68,123 t-48,71 t-38,-51 q-49,-262 -183,-299 q-18,-4 -18,12 v897 q0,43 -43,43 h-2 q-43,0 -43,-43 V49 q0,-43 43,-43 h2 q43,0 43,43 zM43,6 h176 q43,0 43,43 v1974 q0,43 -43,43 H43 q-43,0 -43,-43 V49 q0,-43 43,-43 z" id="svg_1" class=""/></g></svg>