<svg xmlns="http://www.w3.org/2000/svg" width="1411" height="1837"><rect id="backgroundrect" width="100%" height="100%" x="0" y="0" fill="none" stroke="none"/><g class="currentLayer" style=""><title>Layer 1</title><path d="M1298.0357151031494,168 q47,0 80,33 t33,80 t-33,80 t-80,33 t-80,-33 t-32,-80 q0,-47 32,-80 q33,-33 80,-33 zm2,514 q47,0 79,32 t32,79 t-32,79 t-79,32 t-79,-32 t-31,-79 q0,-47 31,-79 q32,-32 79,-32 zm-774,-682 q264,0 418,162 t153,432 q0,403 -274,699 T61.035715103149414,1827 q-20,10 -35,10 q-27,0 -26,-24 q0,-20 30,-37 q410,-236 585,-506 t175,-657 q0,-252 -77,-393 t-227,-141 t-244,78 q-94,79 -95,153 q0,37 33,37 q10,0 41,-8 t61,-7 q80,-1 138,59 t59,155 q0,95 -60,155 t-168,61 q-109,0 -175,-88 T10.035715103149414,441 t124,-286 q60,-69 162,-112 t230,-43 z" id="svg_1" class=""/></g></svg>