<svg xmlns="http://www.w3.org/2000/svg" width="1377" height="3598"><rect id="backgroundrect" width="100%" height="100%" x="0" y="0" fill="none" stroke="none"/>

 <g style="">
  <title>background</title>
  <rect fill="none" id="canvas_background" height="3598" width="1377" y="-1" x="-1"/>
 </g>
 <g style="" class="currentLayer">
  <title>Layer 1</title>
  <path id="svg_1" d="m883,1734 q219,0 356,145 t137,331 t-92,314 q-92,127 -252,191 q-2,2 -15,7 t-13,11 q0,7 30,179 q31,172 31,273 t-30,178 q-31,77 -73,120 t-113,78 t-185,36 t-194,-32 q-135,-56 -179,-192 q-18,-54 -19,-109 q0,-98 60,-167 t154,-69 t148,60 t54,146 q0,85 -40,132 q-40,48 -102,66 t-61,32 q0,23 43,41 q44,19 110,19 t114,-11 t104,-44 q55,-33 87,-106 t32,-177 t-55,-414 q-2,-16 -8,-19 t-46,5 q-38,8 -119,8 q-182,0 -327,-58 q-144,-58 -234,-156 q-184,-200 -184,-489 q0,-290 229,-577 q127,-156 379,-364 q16,-14 20,-22 t-1,-28 q-29,-168 -29,-335 q0,-414 201,-637 q90,-98 133,-99 q16,0 49,33 t57,70 q133,195 133,477 q-1,172 -73,347 t-201,316 q-55,61 -115,117 q-16,16 -12,39 l51,297 q3,29 11,33 t49,4 zm-717,475 q0,215 162,349 t428,134 q59,0 99,-7 t43,-11 t1,-21 l-102,-610 q-5,-16 -11,-19 t-30,3 q-94,27 -150,90 t-55,141 q0,78 41,138 t89,81 t48,35 q0,23 -24,23 t-56,-13 q-106,-37 -171,-132 q-64,-95 -64,-228 t81,-244 t216,-155 q29,-9 31,-15 t-1,-35 l-43,-262 q-4,-16 -8,-18 t-20,10 q-193,156 -314,291 q-190,215 -190,475 zm1042,135 q0,-133 -88,-228 t-215,-106 q-18,-2 -22,4 t0,25 l100,584 q2,18 8,20 t25,-8 q88,-45 140,-121 t52,-170 zm-243,-2025 q-101,0 -187,145 t-86,371 q0,109 12,188 q6,35 27,17 q63,-55 129,-121 q227,-227 227,-432 q0,-82 -34,-125 q-35,-43 -88,-43 z" class=""/>
 </g>
</svg>