<svg xmlns="http://www.w3.org/2000/svg" width="733" height="578"><rect id="backgroundrect" width="100%" height="100%" x="0" y="0" fill="none" stroke="none"/><g class="currentLayer" style=""><title>Layer 1</title><path d="M523,375 q52,0 82,-34 t30,-95 t-29,-95 t-82,-34 t-82,34 q-28,34 -28,95 t28,95 t81,34 zm-259,154 q133,0 133,-169 q0,-79 -34,-123 t-99,-44 H145 v336 h119 zm225,-529 q109,0 177,53 t67,140 q0,141 -161,263 t-330,122 q-104,-1 -173,-53 T0,385 q0,-152 144,-268 t345,-117 zm-225,252 q70,0 70,110 t-70,109 h-55 v-219 h55 zm260,-82 q53,0 54,78 q0,33 -16,55 t-38,21 q-53,0 -53,-77 t53,-77 z" id="svg_1" class=""/></g></svg>