<svg xmlns="http://www.w3.org/2000/svg" width="733" height="578"><rect id="backgroundrect" width="100%" height="100%" x="0" y="0" fill="none" stroke="none"/><g class="currentLayer" style=""><title>Layer 1</title><path d="M489,0 q109,0 177,53 t67,140 q0,141 -161,263 t-330,122 q-104,-1 -173,-53 T0,385 q0,-152 144,-268 t345,-117 zm-116,238 v-58 H160 v336 h63 v-145 h131 v-58 H223 v-75 h150 zm235,123 v-9 q-14,-14 -14,-30 v-138 q0,-77 -90,-77 t-96,86 h55 q2,-33 39,-33 t37,24 q0,18 -47,29 l-25,4 q-66,12 -66,80 t68,68 q39,0 70,-37 q0,25 6,33 h63 zm-69,-107 q0,57 -47,57 q-31,0 -31,-24 t33,-32 q33,-7 45,-13 v12 z" id="svg_1" class=""/></g></svg>