<svg xmlns="http://www.w3.org/2000/svg" width="733" height="578"><rect id="backgroundrect" width="100%" height="100%" x="0" y="0" fill="none" stroke="none"/><g class="currentLayer" style=""><title>Layer 1</title><path d="M561,137 v-65 h-59 v65 h59 zm-2,279 v-250 h-57 v250 h57 zm-113,80 v-336 h-94 l-53,266 l-53,-266 h-94 v336 h63 v-262 l53,262 h64 l53,-262 v262 h61 zm43,-496 q109,0 177,53 t67,140 q0,143 -162,264 t-331,121 q-104,-1 -172,-53 T0,385 q0,-152 144,-268 t345,-117 z" id="svg_1" class=""/></g></svg>