<svg xmlns="http://www.w3.org/2000/svg" width="733" height="578"><rect id="backgroundrect" width="100%" height="100%" x="0" y="0" fill="none" stroke="none"/><g class="currentLayer" style=""><title>Layer 1</title><path d="M526,133 v-63 h-57 v63 h57 zm-2,279 v-248 h-57 v248 h57 zm-237,78 q123,0 123,-107 q0,-74 -80,-88 l-47,-10 q-57,-12 -58,-45 q0,-41 57,-41 t58,53 h59 q-1,-109 -117,-109 t-116,103 q0,74 86,90 l41,10 q57,12 57,45 q0,43 -64,43 t-65,-55 h-61 q0,53 34,82 t93,29 zm202,-490 q109,0 177,53 t67,140 q0,141 -161,263 t-330,122 q-104,1 -173,-51 T0,385 q0,-152 144,-268 t345,-117 z" id="svg_1" class=""/></g></svg>