<svg xmlns="http://www.w3.org/2000/svg" width="733" height="578"><rect id="backgroundrect" width="100%" height="100%" x="0" y="0" fill="none" stroke="none"/><g class="currentLayer" style=""><title>Layer 1</title><path d="M508,309 q-53,0 -53,-76 t52,-77 q52,0 52,78 q0,35 -14,55 t-37,20 zm-1,52 q52,0 82,-34 t29,-93 q0,-129 -112,-129 q-51,0 -80,32 t-29,94 t29,96 t81,34 zm-382,43 q0,110 124,110 t124,-106 q0,-74 -80,-90 l-47,-11 q-57,-10 -58,-43 q0,-41 58,-41 t59,52 h57 q0,-106 -116,-106 t-117,101 q0,74 86,91 l41,10 q57,10 57,45 q-1,43 -65,43 t-64,-55 h-59 zm364,-404 q109,0 177,53 t67,140 q0,141 -161,263 t-330,122 q-104,1 -173,-51 T0,385 q0,-152 144,-268 t345,-117 z" id="svg_1" class=""/></g></svg>