<svg xmlns="http://www.w3.org/2000/svg" width="733" height="578"><rect id="backgroundrect" width="100%" height="100%" x="0" y="0" fill="none" stroke="none"/><g class="currentLayer" style=""><title>Layer 1</title><path d="M510,236 q0,59 -45,59 q-33,0 -33,-26 t37,-32 q37,-7 41,-12 v11 zm-23,-236 q109,0 178,53 t68,140 q0,143 -162,264 t-331,121 q-104,1 -172,-51 T0,385 q0,-152 144,-268 t343,-117 zm-88,490 v-58 H254 v-278 h-61 v336 h206 zm168,-324 q0,-76 -91,-76 t-97,86 h57 q2,-35 38,-35 t36,25 q0,20 -45,31 l-25,4 q-66,12 -65,74 q0,72 67,71 q41,0 68,-35 q0,23 8,31 h62 q-12,-23 -13,-37 v-139 z" id="svg_1" class=""/></g></svg>