<svg xmlns="http://www.w3.org/2000/svg" width="733" height="578" style=""><rect id="backgroundrect" width="100%" height="100%" x="0" y="0" fill="none" stroke="none"/><g class="currentLayer" style=""><title>Layer 1</title><path d="M637,258 v-8 q0,-67 -28,-103 t-76,-36 q-49,0 -77,36 t-28,96 t28,93 t74,33 q86,0 105,-74 h-57 q-6,25 -48,25 t-43,-62 h150 zm-227,254 v-12 q-14,-8 -15,-29 q0,-74 -6,-90 t-35,-31 q52,-23 52,-73 t-22,-76 t-60,-25 H162 v336 h61 v-133 h72 q39,0 39,41 v35 q0,41 8,57 h68 zm77,-512 q109,0 178,53 t68,140 q0,143 -162,264 t-331,121 q-104,-1 -172,-53 T0,385 q0,-152 144,-268 t343,-117 zm-188,234 q43,0 43,44 t-43,44 h-76 v-88 h76 zm233,-74 q39,0 46,55 h-91 q6,-55 45,-55 z" id="svg_1" class=""/></g></svg>