<svg xmlns="http://www.w3.org/2000/svg" width="680" height="2097"><rect id="backgroundrect" width="100%" height="100%" x="0" y="0" fill="none" stroke="none"/><g class="currentLayer" style=""><title>Layer 1</title><path d="M223,578 q-96,0 -162,-56 v760 q184,-14 292,-144 q210,-256 143,-654 q-135,94 -273,94 zm285,674 q0,-53 -16,-93 q-4,-14 -20,-14 t-21,8 q-79,124 -204,233 q-65,56 -104,108 t-57,128 q-2,2 -2,6 q0,20 29,21 h16 q87,0 177,-66 q202,-146 202,-331 zM2,2089 H0 V385 q0,-152 134,-268 t321,-117 q100,0 162,53 t63,140 q0,125 -115,233 q9,15 13,35 q61,303 -43,518 q1,4 -1,16 t2,20 q4,7 15,41 q51,172 33,275 t-70,182 t-120,138 q-66,58 -132,118 q-158,143 -184,302 q-4,27 -41,26 l-35,-2 v-6 z" id="svg_1" class=""/></g></svg>