<svg xmlns="http://www.w3.org/2000/svg" width="698" height="2089" style=""><rect id="backgroundrect" width="100%" height="100%" x="0" y="0" fill="none" stroke="none"/><g class="currentLayer" style=""><title>Layer 1</title><path d="M70,1896 q0,23 14,48 q30,53 106,53 t208,-87 t179,-136 q48,-50 48,-78 t-15,-54 q-29,-48 -97,-48 t-228,92 Q70,1809 70,1896 zm164,193 q-106,0 -170,-52 T0,1884 t98,-235 q50,-66 146,-110 t212,-44 t181,55 V0 h61 v1694 q0,78 -43,155 q-43,76 -92,124 t-136,82 t-193,34 z" id="svg_1" class=""/></g></svg>