<svg xmlns="http://www.w3.org/2000/svg" width="1190" height="2071" style=""><rect id="backgroundrect" width="100%" height="100%" x="0" y="0" fill="none" stroke="none"/><g class="currentLayer" style=""><title>Layer 1</title><path d="M1104,846 q0,-102 -55,-182 q-145,-215 -304,-215 h-16 q-12,0 -23,10 t-4,16 q20,76 52,125 t132,149 q101,100 161,195 q5,8 21,8 t19,-12 q3,-2 10,-34 t7,-60 zm86,563 q0,207 -14,225 q-16,35 -41,35 q-4,0 -17,-4 q-29,-8 -28,-49 q0,-10 9,-63 t9,-138 q0,-169 -75,-321 T872,884 t-192,-67 v869 q0,143 -150,264 t-307,121 q-95,-1 -159,-53 T0,1878 q0,-152 134,-268 t321,-117 q104,0 163,53 V2 q23,-2 35,-2 q37,0 41,27 q12,76 42,134 t59,86 t79,73 q50,46 128,128 q77,82 118,144 q62,95 62,211 t-22,195 q-22,78 -28,86 q-4,8 -4,16 l2,18 q59,123 60,246 v45 z" id="svg_1" class=""/></g></svg>