<svg xmlns="http://www.w3.org/2000/svg" width="698" height="2089"><rect id="backgroundrect" width="100%" height="100%" x="0" y="0" fill="none" stroke="none"/><g class="currentLayer" style=""><title>Layer 1</title><path d="M625,201 q0,-28 -15,-54 q-30,-49 -98,-49 t-227,93 Q70,314 70,401 q0,23 14,48 q31,53 107,53 t219,-96 q215,-141 215,-205 zm-158,-201 q102,0 167,54 q64,54 64,139 t-43,161 t-91,124 t-136,82 t-196,34 t-171,-57 v1552 H0 V395 q0,-96 61,-192 q129,-203 406,-203 z" id="svg_1" class=""/></g></svg>