<svg xmlns="http://www.w3.org/2000/svg" width="680" height="2095"><rect id="backgroundrect" width="100%" height="100%" x="0" y="0" fill="none" stroke="none"/><g class="currentLayer" style=""><title>Layer 1</title><path d="M535,755 q0,-116 -43,-245 q-2,-8 -7,-20 q-133,88 -245,88 t-179,-56 v1039 q159,-66 245,-166 q143,-164 202,-414 q27,-110 27,-226 zM61,2089 h-2 q-14,6 -30,6 t-23,-6 H0 V385 q0,-152 134,-268 t321,-117 q100,0 162,53 t63,140 q0,122 -117,235 q4,8 6,15 q57,229 58,370 q0,303 -254,703 q-99,141 -153,225 q-115,177 -138,309 q-4,29 -21,37 v2 z" id="svg_1" class=""/></g></svg>