<svg xmlns="http://www.w3.org/2000/svg" width="1159" height="2071"><rect id="backgroundrect" width="100%" height="100%" x="0" y="0" fill="none" stroke="none"/><g class="currentLayer" style=""><title>Layer 1</title><path d="M1016,1608 q0,-12 6,-31 q49,-131 49,-305 t-50,-290 t-151,-253 Q770,592 680,537 v1149 q0,143 -150,264 t-307,121 q-95,-1 -159,-53 T0,1878 q0,-152 134,-268 t321,-117 q104,0 163,53 V19 q2,-18 21,-19 q53,0 61,45 q42,243 224,526 q236,375 235,703 q0,156 -41,301 l-12,53 q-14,45 -53,41 q-37,-19 -37,-61 z" id="svg_1" class=""/></g></svg>