<svg xmlns="http://www.w3.org/2000/svg" width="731" height="578"><rect id="backgroundrect" width="100%" height="100%" x="0" y="0" fill="none" stroke="none"/><g class="currentLayer" style=""><title>Layer 1</title><path d="M563,168 q-23,0 -65,25 v-121 l-41,16 v312 q12,-4 58,-34 t68,-68 q23,-38 23,-64 v-11 q-6,-55 -43,-55 zm-286,334 q71,0 113,-34 t44,-95 h-72 q-8,66 -79,66 q-92,0 -93,-123 q0,-123 95,-123 q61,0 77,63 h70 q-4,-59 -46,-93 t-112,-34 t-113,49 q-44,49 -44,137 t44,137 q44,50 116,50 zm210,-502 q109,0 177,53 t67,140 q0,143 -161,264 t-330,121 q-104,0 -172,-51 T0,385 q0,-152 144,-268 t343,-117 zm65,207 q20,0 20,24 q-1,46 -56,87 l-18,14 v-98 q34,-27 54,-27 z" id="svg_1" class=""/></g></svg>