<svg xmlns="http://www.w3.org/2000/svg" width="731" height="578" style=""><rect id="backgroundrect" width="100%" height="100%" x="0" y="0" fill="none" stroke="none"/><g class="currentLayer" style=""><title>Layer 1</title><path d="M623,168 v-61 l-43,16 v-33 l-48,-10 v61 l-38,17 v-76 l-48,14 v80 l-34,13 v61 l34,-14 v51 l-34,14 v60 l34,-13 v95 l48,-27 v-86 l38,-16 v75 l48,-39 v-53 l43,-18 v-60 l-43,17 v-51 zm-383,334 q64,0 104,-32 q39,-32 41,-87 h-66 q-6,61 -73,62 q-82,0 -82,-112 t84,-112 q57,0 71,58 h64 q-4,-55 -42,-85 q-37,-30 -101,-30 t-104,44 t-40,123 t40,125 t104,46 zm247,-502 q109,0 177,53 t67,140 q0,143 -161,264 t-330,121 q-104,0 -172,-51 T0,385 q0,-152 144,-268 t343,-117 zm7,268 v-51 l38,-14 v51 z" id="svg_1" class=""/></g></svg>