<svg xmlns="http://www.w3.org/2000/svg" width="731" height="578"><rect id="backgroundrect" width="100%" height="100%" x="0" y="0" fill="none" stroke="none"/><g class="currentLayer" style=""><title>Layer 1</title><path d="M602,246 v-10 q-6,-55 -43,-56 q-23,0 -65,25 v-121 l-41,17 v311 q17,-6 47,-26 q102,-69 102,-140 zm-295,258 q57,0 88,-27 q31,-26 31,-72 t-55,-79 q45,-29 45,-68 t-29,-65 t-80,-25 H158 v336 h149 zm180,-504 q109,0 177,53 t67,140 q0,141 -161,263 t-330,122 q-104,0 -172,-52 T0,385 q0,-152 144,-268 t343,-117 zm-178,359 q51,0 51,44 t-51,44 h-84 v-88 h84 zm41,-96 q0,38 -49,38 h-76 v-75 h76 q49,-1 49,37 zm198,-44 q22,0 22,24 q-1,47 -58,85 l-18,14 v-98 q32,-25 54,-25 z" id="svg_1" class=""/></g></svg>