<svg xmlns="http://www.w3.org/2000/svg" width="731" height="578"><rect id="backgroundrect" width="100%" height="100%" x="0" y="0" fill="none" stroke="none"/><g class="currentLayer" style=""><title>Layer 1</title><path d="M643,168 v-61 l-43,18 v-35 l-47,-10 v62 l-39,16 v-76 l-47,14 v80 l-35,13 v61 l35,-14 v51 l-35,14 v60 l35,-13 v95 l47,-27 v-86 l39,-16 v75 l47,-39 v-53 l43,-18 v-60 l-43,17 v-51 zm-231,39 v-63 H199 v372 h61 v-159 h133 v-64 H260 v-86 h152 zm75,-207 q109,0 177,53 t67,140 q0,143 -161,264 t-330,121 q-104,0 -172,-51 T0,385 q0,-152 144,-268 t343,-117 zm27,271 v-52 l39,-16 v51 z" id="svg_1" class=""/></g></svg>