<svg xmlns="http://www.w3.org/2000/svg" width="731" height="578"><rect id="backgroundrect" width="100%" height="100%" x="0" y="0" fill="none" stroke="none"/><g class="currentLayer" style=""><title>Layer 1</title><path d="M256,248.008544921875 q70,0 70,98 t-70,99 h-55 v-197 h55 zm238,23 v-52 l38,-16 v51 zm129,-103 v-59 l-43,16 v-33 l-48,-10 v62 l-38,14 v-74 l-48,15 v77 l-34,15 v59 l34,-12 v51 l-34,12 v62 l34,-15 v97 l48,-27 v-88 l38,-14 v75 l48,-39 v-55 l43,-16 v-62 l-43,17 v-51 zm-236,176 q0,-147 -131,-147 H139 v299 h117 q63,0 94,-35 q37,-47 37,-117 zm100,-344 q109,0 177,52 t67,141 q0,143 -161,264 t-330,121 q-104,0 -172,-52 T0,385.008544921875 q0,-154 143,-270 t344,-115 z" id="svg_1" class=""/></g></svg>