<svg xmlns="http://www.w3.org/2000/svg" width="733" height="578"><rect id="backgroundrect" width="100%" height="100%" x="0" y="0" fill="none" stroke="none"/><g class="currentLayer" style=""><title>Layer 1</title><path d="M359,494 q77,0 121,-36 t46,-99 h-75 q-8,70 -84,69 q-47,0 -73,-34 t-26,-96 t27,-97 t74,-35 q66,0 82,70 h73 q-4,-63 -48,-99 t-118,-36 t-120,52 q-48,52 -48,144 t46,144 t123,53 zm130,-494 q109,0 177,53 t67,140 q0,143 -161,264 t-332,121 q-104,0 -172,-51 T0,385 q0,-152 144,-268 t345,-117 z" id="svg_1" class=""/></g></svg>