<svg xmlns="http://www.w3.org/2000/svg" width="733" height="578"><rect id="backgroundrect" width="100%" height="100%" x="0" y="0" fill="none" stroke="none"/><g class="currentLayer" style=""><title>Layer 1</title><path d="M340,410 q-41,0 -71,-36 t-29,-93 q0,-125 104,-125 q68,0 90,59 h72 q-8,-57 -51,-91 t-118,-34 q-75,1 -124,53 t-49,138 t49,140 t122,54 t116,-57 l8,51 l47,-28 v-173 H356 v64 h84 q-2,35 -30,57 t-70,21 zm149,-410 q109,0 177,53 t67,140 q0,141 -161,263 t-330,122 q-104,-1 -173,-53 T0,385 q0,-152 144,-268 t345,-117 z" id="svg_1" class=""/></g></svg>