<svg xmlns="http://www.w3.org/2000/svg" width="731" height="578" style=""><rect id="backgroundrect" width="100%" height="100%" x="0" y="0" fill="none" stroke="none"/><g class="currentLayer" style=""><title>Layer 1</title><path d="M647,238 v-10 q-6,-55 -43,-56 q-23,0 -65,25 v-121 l-41,16 v312 q17,-6 47,-26 q102,-69 102,-140 zm-184,244 v-62 H268 v-92 h172 v-62 H268 v-81 h187 v-62 H195 v359 h268 zm24,-482 q109,0 177,53 t67,140 q0,141 -161,263 t-330,122 q-104,0 -172,-52 T0,385 q0,-152 144,-268 t343,-117 zm105,211 q22,0 20,34 q-1,34 -55,75 l-18,14 v-98 q31,-25 53,-25 z" id="svg_1" class=""/></g></svg>