<svg xmlns="http://www.w3.org/2000/svg" width="733" height="578"><rect id="backgroundrect" width="100%" height="100%" x="0" y="0" fill="none" stroke="none"/><g class="currentLayer" style=""><title>Layer 1</title><path d="M588,164 q-30,0 -66,25 v-121 l-41,16 v309 q16,-5 48,-25 q99,-61 102,-138 v-11 q-6,-55 -43,-55 zm-301,274 q-37,1 -64,-31 t-26,-83 q0,-115 94,-115 q59,0 80,53 h65 q-8,-51 -47,-82 t-105,-31 t-112,49 q-45,48 -45,125 t44,126 q45,49 111,49 t103,-51 l8,45 h43 v-181 H301 v58 h76 q-1,31 -27,50 t-63,19 zm200,-438 q111,0 179,52 t67,141 q0,143 -162,264 t-331,121 q-104,-1 -172,-53 T0,385 q0,-152 144,-268 t343,-117 zm87,203 q22,0 22,24 q0,46 -55,84 l-19,15 v-98 q30,-25 52,-25 z" id="svg_1" class=""/></g></svg>