<svg xmlns="http://www.w3.org/2000/svg" width="731" height="578" style=""><rect id="backgroundrect" width="100%" height="100%" x="0" y="0" fill="none" stroke="none"/><g class="currentLayer" style=""><title>Layer 1</title><path d="M600,199.008544921875 q-25,0 -65,24 v-122 l-41,18 v309 q14,-5 58,-32 t68,-66 q23,-39 23,-66 v-10 q-6,-55 -43,-55 zm-297,309 q156,0 156,-178 t-156,-178 H164 v356 h139 zm184,-508 q109,0 177,52 t67,141 q0,141 -161,263 t-330,122 q-104,0 -172,-52 T0,385.008544921875 q0,-154 143,-270 t344,-115 zm-184,213 q82,0 82,117 t-82,117 h-65 v-234 h65 zm232,49 q33,-27 51,-26 q25,0 24,30 q0,18 -18,42 t-39,38 l-18,15 v-99 z" id="svg_1" class=""/></g></svg>