<svg xmlns="http://www.w3.org/2000/svg" width="733" height="578"><rect id="backgroundrect" width="100%" height="100%" x="0" y="0" fill="none" stroke="none"/><g class="currentLayer" style=""><title>Layer 1</title><path d="M629,166.0181884765625 v-59 l-43,16 v-33 l-47,-10 v62 l-41,16 v-76 l-47,15 v77 l-35,15 v59 l35,-12 v51 l-35,12 v62 l35,-15 v97 l47,-27 v-86 l41,-16 v75 l47,-39 v-55 l43,-16 v-62 l-43,19 v-51 zm-277,320 h76 l-125,-365 h-82 L92,486.0181884765625 h76 l25,-74 h135 zm137,-486 q109,-1 177,53 t67,140 q0,143 -162,264 t-331,121 q-104,0 -172,-52 T0,385.0181884765625 q0,-152 144,-268 t345,-117 zm-276,348 l47,-141 l47,141 h-94 zm285,-79 v-52 l41,-16 v51 z" id="svg_1" class=""/></g></svg>