<svg xmlns="http://www.w3.org/2000/svg" width="731" height="578"><rect id="backgroundrect" width="100%" height="100%" x="0" y="0" fill="none" stroke="none"/><g class="currentLayer" style=""><title>Layer 1</title><path d="M391,482 q61,0 95,-29 t34,-80 t-61,-84 q49,-33 49,-75 q0,-41 -32,-69 t-87,-28 H227 v365 h164 zm96,-482 q109,0 177,53 t67,140 q0,143 -161,264 t-330,121 q-104,0 -172,-52 T0,385 q0,-152 144,-268 t343,-117 zm-51,221 q0,41 -53,41 h-80 v-82 h80 q53,0 53,41 zm-45,103 q55,0 55,47 t-55,47 h-88 v-94 h88 z" id="svg_1" class=""/></g></svg>