<svg xmlns="http://www.w3.org/2000/svg" width="731" height="578"><rect id="backgroundrect" width="100%" height="100%" x="0" y="0" fill="none" stroke="none"/><g class="currentLayer" style=""><title>Layer 1</title><path d="M639,162 v-59 l-43,16 v-33 l-47,-10 v61 l-39,15 v-74 l-47,14 v78 l-35,15 v59 l35,-12 v51 l-35,12 v62 l35,-15 v97 l47,-27 v-88 l39,-15 v76 l47,-39 v-55 l43,-16 v-62 l-43,19 v-52 zm-223,340 v-61 H238 v-93 h157 v-61 H238 v-82 h170 v-61 H170 v358 h246 zm71,-502 q109,0 177,53 t67,140 q0,143 -161,264 t-330,121 q-104,0 -172,-52 T0,385 q0,-152 144,-268 t343,-117 zm23,264 v-51 l39,-16 v51 z" id="svg_1" class=""/></g></svg>