<svg xmlns="http://www.w3.org/2000/svg" width="731" height="578"><rect id="backgroundrect" width="100%" height="100%" x="0" y="0" fill="none" stroke="none"/><g class="currentLayer" style=""><title>Layer 1</title><path d="M659,164 v-59 l-43,16 v-33 l-47,-10 v61 l-41,17 v-76 l-47,14 v78 l-35,15 v59 l35,-12 v51 l-35,12 v62 l35,-15 v97 l47,-27 v-86 l41,-16 v75 l47,-39 v-55 l43,-16 v-62 l-43,19 v-51 zm-384,275 q-37,0 -65,-32 t-28,-83 q0,-115 94,-115 q63,0 80,53 h66 q-6,-51 -46,-82 t-107,-31 t-111,49 q-44,48 -45,125 q0,77 45,126 t110,49 t105,-51 l8,45 h41 v-180 H287 v57 h78 q-5,30 -29,50 t-61,20 zm212,-439 q109,0 177,53 t67,140 q0,143 -161,264 t-330,121 q-104,0 -172,-52 T0,385 q0,-152 144,-268 t343,-117 zm41,266 v-51 l41,-16 v51 z" id="svg_1" class=""/></g></svg>