<svg xmlns="http://www.w3.org/2000/svg" width="733" height="578"><rect id="backgroundrect" width="100%" height="100%" x="0" y="0" fill="none" stroke="none"/><g class="currentLayer" style=""><title>Layer 1</title><path d="M240,348 l47,-141 l47,141 h-94 zm376,-110 v-10 q-6,-55 -40,-55 t-68,24 v-121 l-41,16 v310 q16,-5 59,-33 q44,-28 67,-67 q23,-38 23,-64 zm-237,248 h76 l-125,-365 h-82 l-129,365 h76 l24,-74 h135 zm108,-486 q111,1 179,53 t67,140 q0,143 -162,264 t-331,121 q-104,0 -172,-52 T0,385 q0,-152 144,-268 t343,-117 zm72,209 q25,0 25,31 q0,18 -20,42 t-38,38 l-18,14 v-98 q33,-27 51,-27 z" id="svg_1" class=""/></g></svg>