<svg xmlns="http://www.w3.org/2000/svg" width="731" height="578"><rect id="backgroundrect" width="100%" height="100%" x="0" y="0" fill="none" stroke="none"/><g class="currentLayer" style=""><title>Layer 1</title><path d="M574,207 q22,0 22,34 t-55,75 l-19,14 v-98 q30,-25 52,-25 zm12,-39 q-22,0 -64,25 v-121 l-43,16 v312 q16,-7 42,-21 t68,-58 t42,-89 v-9 q-6,-55 -45,-55 zm-144,43 v-63 H180 v372 h76 v-159 h164 v-64 H256 v-86 h186 zm45,-211 q109,0 177,53 t67,140 q0,143 -161,264 t-330,121 q-104,0 -172,-51 T0,385 q0,-152 144,-268 t343,-117 z" id="svg_1" class=""/></g></svg>