<svg xmlns="http://www.w3.org/2000/svg" width="731" height="578" style=""><rect id="backgroundrect" width="100%" height="100%" x="0" y="0" fill="none" stroke="none"/><g class="currentLayer" style=""><title>Layer 1</title><path d="M289,225 q49,0 49,38 t-49,38 h-74 v-76 h74 zm358,-55 v-59 l-43,16 v-33 l-47,-10 v62 l-39,14 v-74 l-47,15 v77 l-35,15 v59 l35,-12 v51 l-35,12 v62 l35,-15 v97 l47,-27 v-88 l39,-14 v75 l47,-39 v-55 l43,-16 v-62 l-43,19 v-51 zm-350,334 q57,0 87,-27 q30,-26 30,-72 t-56,-79 q48,-29 48,-68 t-30,-65 t-81,-25 H145 v336 h152 zm190,-504 q109,0 177,53 t67,140 q0,143 -161,264 t-330,121 q-104,-1 -172,-53 T0,385 q0,-152 144,-268 t343,-117 zm31,273 v-52 l39,-16 v51 zm-221,86 q51,0 51,44 t-51,44 h-82 v-88 h82 z" id="svg_1" class=""/></g></svg>